<svg width="1024" height="768" viewBox="0 0 1024 768" fill="none" xmlns="http://www.w3.org/2000/svg">
<g clip-path="url(#clip0)">
<path d="M256.97 94.0769H767.03L721.492 614.398L514.672 673.923L303.627 614.413L256.97 94.0769Z" fill="#316AFF"/>
<path d="M513.4 136.908H721.901L681.297 582.237L513.823 629.18L513.4 136.908Z" fill="white" fill-opacity="0.3"/>
<path d="M697.24 486.918L719.918 429.572H785.396L754.319 342.58L793.185 244.299L904.5 539.853H822.409L803.385 486.918H697.24Z" fill="#E9233F"/>
<path d="M627.205 523.702L746.37 228.147H667.367L585.85 419.141L527.883 228.148H467.159L404.919 419.141L361.026 332.109L321.304 454.485L361.633 523.702H439.382L495.625 352.421L549.25 523.702H627.205Z" fill="#E9233F"/>
<path d="M194.491 422.243H243.153C257.893 422.243 271.019 420.598 282.531 417.308L295.115 378.537L330.287 270.179C327.607 265.931 324.547 261.915 321.108 258.131C303.05 238.142 276.628 228.148 241.843 228.148H119.5V523.702H194.491V422.243ZM258.902 296.143C265.956 303.242 269.483 312.742 269.483 324.644C269.483 336.637 266.381 346.148 260.178 353.179C253.377 360.991 240.855 364.896 222.613 364.896H194.491V285.494H222.82C239.821 285.494 251.849 289.043 258.902 296.143Z" fill="#E9233F"/>
</g>
<defs>
<clipPath id="clip0">
<rect width="1024" height="768" fill="white"/>
</clipPath>
</defs>
</svg>
